# xmcd
#
# Track frame offsets: 
#        150
#        10824
#        30857
#        46290
#        57867
#        74035
#        87156
#        97871
#        107853
#        122734
#        135166
#        149604
#        163794
#        176410
#
# Disc length: 2545 seconds
#
# Revision: 0
# Processed by: cddbd v1.5.2PL0 Copyright (c) Steve Scherf et al.
# Submitted via: ExactAudioCopyFreeDBPlugin 1.0
#
DISCID=b409ef0e
DTITLE=Frank Sinatra - Hello Frank - As Time Goes By
DYEAR=2015
DGENRE=Blues
TTITLE0=NICE WORK IF YOU CAN GET IT
TTITLE1=ONE FOR MY BABY (AND ONE MORE FOR THE ROAD)
TTITLE2=GUESS I'LL HANG MY TEARS OUT TO DRY
TTITLE3=AS TIME GOES BY
TTITLE4=IT NEVER ENTERED MY MIND
TTITLE5=AMOR
TTITLE6=CIRIBIRIBIN
TTITLE7=SHE'S FUNNY THAT WAY
TTITLE8=EMBRACEABLE YOU
TTITLE9=ALL THE THINGS YOU ARE
TTITLE10=CLOSE TO YOU
TTITLE11=APRIL PLAYED THE FIDDLE
TTITLE12=BAUBLES, BANGLES AND BEADS
TTITLE13=DAYBREAK
EXTD=
EXTT0=
EXTT1=
EXTT2=
EXTT3=
EXTT4=
EXTT5=
EXTT6=
EXTT7=
EXTT8=
EXTT9=
EXTT10=
EXTT11=
EXTT12=
EXTT13=
PLAYORDER=
